<mxfile host="65bd71144e">
    <diagram id="zVZU2J7hUt9e1Otj8FAy" name="第 1 页">
        <mxGraphModel dx="345" dy="284" grid="1" gridSize="10" guides="1" tooltips="1" connect="1" arrows="1" fold="1" page="1" pageScale="1" pageWidth="1169" pageHeight="827" math="0" shadow="0">
            <root>
                <mxCell id="0"/>
                <mxCell id="1" parent="0"/>
                <mxCell id="160" value="外卖员存餐" style="swimlane;aspect=fixed;labelBackgroundColor=default;" vertex="1" parent="1">
                    <mxGeometry width="1130" height="820" as="geometry">
                        <mxRectangle x="120" y="30" width="90" height="23" as="alternateBounds"/>
                    </mxGeometry>
                </mxCell>
                <mxCell id="161" value="前端   " style="swimlane;startSize=20;horizontal=1;containerType=tree;fillColor=default;" vertex="1" parent="160">
                    <mxGeometry y="23" width="460" height="797" as="geometry">
                        <mxRectangle y="23" width="70" height="20" as="alternateBounds"/>
                    </mxGeometry>
                </mxCell>
                <mxCell id="162" style="edgeStyle=none;html=1;entryX=0.5;entryY=0;entryDx=0;entryDy=0;" edge="1" parent="161" source="163" target="164">
                    <mxGeometry relative="1" as="geometry"/>
                </mxCell>
                <mxCell id="163" value="输入存餐码（用户手机号码）" style="rounded=1;whiteSpace=wrap;html=1;" vertex="1" parent="161">
                    <mxGeometry x="87.5" y="50" width="170" height="60" as="geometry"/>
                </mxCell>
                <mxCell id="164" value="传入 phoneNum 和 location" style="rounded=0;whiteSpace=wrap;html=1;" vertex="1" parent="161">
                    <mxGeometry x="87.5" y="140" width="170" height="60" as="geometry"/>
                </mxCell>
                <mxCell id="165" value="POST&amp;nbsp;&lt;span style=&quot;font-size: 11px&quot;&gt;/takeout_bin/adminlogin&lt;/span&gt;" style="text;html=1;align=center;verticalAlign=middle;resizable=0;points=[];autosize=1;strokeColor=none;fillColor=none;" vertex="1" parent="161">
                    <mxGeometry x="150" y="217" width="170" height="20" as="geometry"/>
                </mxCell>
                <mxCell id="166" style="edgeStyle=none;html=1;entryX=0;entryY=0.5;entryDx=0;entryDy=0;startArrow=none;" edge="1" parent="161" source="175" target="172">
                    <mxGeometry relative="1" as="geometry">
                        <Array as="points">
                            <mxPoint x="90" y="617"/>
                        </Array>
                    </mxGeometry>
                </mxCell>
                <mxCell id="167" value="在本地内存中添加外卖条目&lt;br&gt;同时响应式更新柜子状态" style="rounded=0;whiteSpace=wrap;html=1;labelBackgroundColor=#2A2A2A;strokeColor=default;fillColor=default;" vertex="1" parent="161">
                    <mxGeometry x="10" y="467" width="160" height="60" as="geometry"/>
                </mxCell>
                <mxCell id="168" style="edgeStyle=none;html=1;entryX=0.5;entryY=0;entryDx=0;entryDy=0;" edge="1" parent="161" source="170" target="167">
                    <mxGeometry relative="1" as="geometry"/>
                </mxCell>
                <mxCell id="169" value="Y&lt;br&gt;" style="edgeLabel;html=1;align=center;verticalAlign=middle;resizable=0;points=[];" vertex="1" connectable="0" parent="168">
                    <mxGeometry x="-0.2292" y="3" relative="1" as="geometry">
                        <mxPoint x="-8" as="offset"/>
                    </mxGeometry>
                </mxCell>
                <mxCell id="170" value="返回结果是否为&lt;br&gt;{message: &quot;success&quot;}" style="rhombus;whiteSpace=wrap;html=1;labelBackgroundColor=#2A2A2A;strokeColor=default;fillColor=default;" vertex="1" parent="161">
                    <mxGeometry x="37.5" y="359" width="270" height="80" as="geometry"/>
                </mxCell>
                <mxCell id="171" style="edgeStyle=none;html=1;entryX=0.5;entryY=0;entryDx=0;entryDy=0;" edge="1" parent="161" source="172" target="174">
                    <mxGeometry relative="1" as="geometry"/>
                </mxCell>
                <mxCell id="172" value="回到柜子预览界面" style="whiteSpace=wrap;html=1;labelBackgroundColor=#2A2A2A;strokeColor=default;fillColor=default;" vertex="1" parent="161">
                    <mxGeometry x="112.5" y="587" width="120" height="60" as="geometry"/>
                </mxCell>
                <mxCell id="173" style="edgeStyle=none;html=1;entryX=1;entryY=0.5;entryDx=0;entryDy=0;startArrow=none;exitX=0.482;exitY=1.033;exitDx=0;exitDy=0;exitPerimeter=0;" edge="1" parent="161" source="177" target="172">
                    <mxGeometry relative="1" as="geometry">
                        <Array as="points">
                            <mxPoint x="261" y="617"/>
                        </Array>
                    </mxGeometry>
                </mxCell>
                <mxCell id="174" value="完成一次存餐" style="rounded=1;whiteSpace=wrap;html=1;labelBackgroundColor=#2A2A2A;strokeColor=default;fillColor=default;" vertex="1" parent="161">
                    <mxGeometry x="112.5" y="697" width="120" height="60" as="geometry"/>
                </mxCell>
                <mxCell id="175" value="&lt;span&gt;提示存放成功&lt;/span&gt;" style="text;html=1;align=center;verticalAlign=middle;resizable=0;points=[];autosize=1;strokeColor=none;fillColor=none;" vertex="1" parent="161">
                    <mxGeometry x="45" y="547" width="90" height="20" as="geometry"/>
                </mxCell>
                <mxCell id="176" value="" style="edgeStyle=none;html=1;entryX=0.493;entryY=-0.022;entryDx=0;entryDy=0;endArrow=none;entryPerimeter=0;" edge="1" parent="161" source="167" target="175">
                    <mxGeometry relative="1" as="geometry">
                        <mxPoint x="90.00000000000023" y="550.0000000000001" as="sourcePoint"/>
                        <mxPoint x="112.50000000000023" y="640" as="targetPoint"/>
                        <Array as="points"/>
                    </mxGeometry>
                </mxCell>
                <mxCell id="177" value="&lt;span&gt;提示存放失败&lt;/span&gt;" style="text;html=1;align=center;verticalAlign=middle;resizable=0;points=[];autosize=1;strokeColor=none;fillColor=none;" vertex="1" parent="161">
                    <mxGeometry x="217.5" y="527" width="90" height="20" as="geometry"/>
                </mxCell>
                <mxCell id="178" value="" style="edgeStyle=none;html=1;entryX=0.463;entryY=0.04;entryDx=0;entryDy=0;endArrow=none;entryPerimeter=0;" edge="1" parent="161" source="170" target="177">
                    <mxGeometry relative="1" as="geometry">
                        <mxPoint x="215.56379821958444" y="449.2403560830861" as="sourcePoint"/>
                        <mxPoint x="232.5" y="640" as="targetPoint"/>
                        <Array as="points">
                            <mxPoint x="260" y="467"/>
                        </Array>
                    </mxGeometry>
                </mxCell>
                <mxCell id="179" value="N" style="edgeLabel;html=1;align=center;verticalAlign=middle;resizable=0;points=[];" vertex="1" connectable="0" parent="178">
                    <mxGeometry x="-0.5841" y="-4" relative="1" as="geometry">
                        <mxPoint x="-8" y="-11" as="offset"/>
                    </mxGeometry>
                </mxCell>
                <mxCell id="182" value="后端" style="swimlane;startSize=20;horizontal=1;containerType=tree;labelBackgroundColor=none;" vertex="1" parent="160">
                    <mxGeometry x="380" y="23" width="380" height="797" as="geometry">
                        <mxRectangle x="380" y="23" width="70" height="20" as="alternateBounds"/>
                    </mxGeometry>
                </mxCell>
                <mxCell id="183" style="edgeStyle=none;html=1;entryX=0.5;entryY=0;entryDx=0;entryDy=0;" edge="1" parent="182" source="184" target="185">
                    <mxGeometry relative="1" as="geometry"/>
                </mxCell>
                <mxCell id="184" value="利用自定义JsonReader将字符串封装为JSONObject" style="rounded=0;whiteSpace=wrap;html=1;" vertex="1" parent="182">
                    <mxGeometry x="112.5" y="193" width="200" height="57" as="geometry"/>
                </mxCell>
                <mxCell id="185" value="预处理数据生成取餐码 code 和坐标 coordinate，封装数据到目标对象中" style="rounded=0;whiteSpace=wrap;html=1;" vertex="1" parent="182">
                    <mxGeometry x="112.5" y="277" width="200" height="60" as="geometry"/>
                </mxCell>
                <mxCell id="186" value="将res封装成JSONObject" style="rounded=0;whiteSpace=wrap;html=1;labelBackgroundColor=#2A2A2A;strokeColor=default;fillColor=default;" vertex="1" parent="182">
                    <mxGeometry x="90" y="369" width="120" height="60" as="geometry"/>
                </mxCell>
                <mxCell id="187" value="处理成JSON字符串返回至前端" style="text;html=1;strokeColor=none;fillColor=none;align=center;verticalAlign=middle;whiteSpace=wrap;rounded=0;labelBackgroundColor=#2A2A2A;" vertex="1" parent="182">
                    <mxGeometry x="-90" y="361" width="180" height="30" as="geometry"/>
                </mxCell>
                <mxCell id="188" style="edgeStyle=none;html=1;entryX=0.5;entryY=1;entryDx=0;entryDy=0;" edge="1" parent="182" source="189" target="186">
                    <mxGeometry relative="1" as="geometry"/>
                </mxCell>
                <mxCell id="189" value="res=success" style="rounded=1;whiteSpace=wrap;html=1;" vertex="1" parent="182">
                    <mxGeometry x="90" y="517" width="120" height="60" as="geometry"/>
                </mxCell>
                <mxCell id="180" value="Tomcat服务器" style="rounded=0;whiteSpace=wrap;html=1;" vertex="1" parent="182">
                    <mxGeometry x="-60" y="190" width="120" height="60" as="geometry"/>
                </mxCell>
                <mxCell id="198" style="edgeStyle=none;html=1;" edge="1" parent="182" source="180" target="184">
                    <mxGeometry relative="1" as="geometry"/>
                </mxCell>
                <mxCell id="190" value="数据库" style="swimlane;startSize=20;horizontal=1;containerType=tree;" vertex="1" parent="160">
                    <mxGeometry x="760" y="23" width="370" height="797" as="geometry">
                        <mxRectangle y="23" width="70" height="20" as="alternateBounds"/>
                    </mxGeometry>
                </mxCell>
                <mxCell id="191" value="通过语句插入数据条目" style="rounded=0;whiteSpace=wrap;html=1;labelBackgroundColor=#2A2A2A;strokeColor=default;fillColor=default;" vertex="1" parent="190">
                    <mxGeometry x="115.75" y="347" width="162.5" height="60" as="geometry"/>
                </mxCell>
                <mxCell id="192" value="返回结果到res" style="text;html=1;strokeColor=none;fillColor=none;align=center;verticalAlign=middle;whiteSpace=wrap;rounded=0;labelBackgroundColor=#2A2A2A;" vertex="1" parent="190">
                    <mxGeometry x="-40" y="372" width="90" height="30" as="geometry"/>
                </mxCell>
                <mxCell id="193" style="edgeStyle=none;html=1;entryX=0;entryY=0.5;entryDx=0;entryDy=0;" edge="1" parent="190" source="194" target="191">
                    <mxGeometry relative="1" as="geometry"/>
                </mxCell>
                <mxCell id="194" value="&lt;span&gt;JDBC Driver操作数据库&lt;/span&gt;" style="rounded=0;whiteSpace=wrap;html=1;labelBackgroundColor=#2A2A2A;strokeColor=default;fillColor=default;" vertex="1" parent="190">
                    <mxGeometry x="-67.5" y="347" width="145" height="60" as="geometry"/>
                </mxCell>
                <mxCell id="195" style="edgeStyle=none;html=1;" edge="1" parent="190" source="196" target="191">
                    <mxGeometry relative="1" as="geometry"/>
                </mxCell>
                <mxCell id="196" value="&lt;span&gt;连接inbindata数据库&lt;/span&gt;" style="shape=cylinder3;whiteSpace=wrap;html=1;boundedLbl=1;backgroundOutline=1;size=15;" vertex="1" parent="190">
                    <mxGeometry x="157.01" y="37" width="80" height="90" as="geometry"/>
                </mxCell>
                <mxCell id="197" style="edgeStyle=none;html=1;entryX=1;entryY=0.5;entryDx=0;entryDy=0;" edge="1" parent="160" source="186" target="170">
                    <mxGeometry relative="1" as="geometry"/>
                </mxCell>
                <mxCell id="199" style="edgeStyle=none;html=1;entryX=0.5;entryY=0;entryDx=0;entryDy=0;" edge="1" parent="160" source="185" target="194">
                    <mxGeometry relative="1" as="geometry">
                        <Array as="points">
                            <mxPoint x="765" y="330"/>
                        </Array>
                    </mxGeometry>
                </mxCell>
                <mxCell id="200" style="edgeStyle=none;html=1;entryX=1;entryY=0.5;entryDx=0;entryDy=0;" edge="1" parent="160" source="191" target="189">
                    <mxGeometry relative="1" as="geometry">
                        <mxPoint x="640" y="580" as="targetPoint"/>
                        <Array as="points">
                            <mxPoint x="957" y="570"/>
                        </Array>
                    </mxGeometry>
                </mxCell>
                <mxCell id="181" style="edgeStyle=none;html=1;entryX=0;entryY=0.5;entryDx=0;entryDy=0;" edge="1" parent="160" source="164" target="180">
                    <mxGeometry relative="1" as="geometry">
                        <Array as="points">
                            <mxPoint x="173" y="243"/>
                        </Array>
                    </mxGeometry>
                </mxCell>
            </root>
        </mxGraphModel>
    </diagram>
</mxfile>